<svg width="16" height="16" viewBox="0 0 16 16" fill="none" xmlns="http://www.w3.org/2000/svg">
<path d="M4.66732 1.99984V0.666504H6.00065V1.99984H10.0007V0.666504H11.334V1.99984H14.0007C14.3689 1.99984 14.6673 2.29832 14.6673 2.6665V5.99984H13.334V3.33317H11.334V4.6665H10.0007V3.33317H6.00065V4.6665H4.66732V3.33317H2.66732V12.6665H6.66732V13.9998H2.00065C1.63246 13.9998 1.33398 13.7014 1.33398 13.3332V2.6665C1.33398 2.29832 1.63246 1.99984 2.00065 1.99984H4.66732ZM11.334 7.99984C9.86125 7.99984 8.66732 9.19377 8.66732 10.6665C8.66732 12.1392 9.86125 13.3332 11.334 13.3332C12.8067 13.3332 14.0007 12.1392 14.0007 10.6665C14.0007 9.19377 12.8067 7.99984 11.334 7.99984ZM7.33398 10.6665C7.33398 8.45737 9.12485 6.6665 11.334 6.6665C13.5431 6.6665 15.334 8.45737 15.334 10.6665C15.334 12.8756 13.5431 14.6665 11.334 14.6665C9.12485 14.6665 7.33398 12.8756 7.33398 10.6665ZM10.6673 8.6665V10.9426L12.1959 12.4712L13.1387 11.5284L12.0007 10.3904V8.6665H10.6673Z" fill="#98A2B3"/>
</svg>
